<svg
  width="36"
  height="36"
  viewBox="0 0 36 36"
  fill="none"
  xmlns="http://www.w3.org/2000/svg"
>
<g clip-path="url(#clip0_215_22)">
<mask
      id="mask0_215_22"
      style="mask-type:luminance"
      maskUnits="userSpaceOnUse"
      x="0"
      y="0"
      width="36"
      height="36"
    >
<path d="M36 0H0V36H36V0Z" fill="white" />
</mask>
<g mask="url(#mask0_215_22)">
<path
        d="M18 3C9.705 3 3 9.705 3 18C3 26.295 9.705 33 18 33C26.295 33 33 26.295 33 18C33 9.705 26.295 3 18 3ZM25.5 23.385L23.385 25.5L18 20.115L12.615 25.5L10.5 23.385L15.885 18L10.5 12.615L12.615 10.5L18 15.885L23.385 10.5L25.5 12.615L20.115 18L25.5 23.385Z"
        fill="#C22A16"
      />
</g>
</g>
<defs>
<clipPath id="clip0_215_22">
<rect width="36" height="36" fill="white" />
</clipPath>
</defs>
</svg>
